<?xml version="1.0" encoding="UTF-8" standalone="no"?>
<svg width="61px" height="47px" viewBox="0 0 61 47" version="1.1" xmlns="http://www.w3.org/2000/svg" xmlns:xlink="http://www.w3.org/1999/xlink">
    <g stroke="none" stroke-width="1" fill="none" fill-rule="evenodd" opacity="0.5">
        <g transform="translate(-288.000000, -1123.000000)" fill="#00A0DE">
            <path d="M349,1155.95687 C349,1148.90683 344.067436,1144.15143 337.81883,1144.15143 C336.668266,1144.15143 335.188691,1144.47979 334.6955,1144.64332 C335.681883,1140.37981 339.299053,1135.29734 343.574245,1131.85409 C344.560628,1131.03448 345.053819,1129.72233 345.053819,1128.41083 C345.053819,1126.27907 342.916223,1123 339.134872,1123 C337.490468,1123 335.846064,1123.49189 334.6955,1124.63986 C326.474128,1132.01827 321.377383,1141.85614 321.377383,1152.34944 C321.377383,1163.00756 328.447543,1169.07447 336.175074,1169.07447 C343.081053,1169.07447 349,1163.17174 349,1155.95687 L349,1155.95687 Z M315.622617,1155.95687 C315.622617,1148.90683 310.690053,1144.15143 304.441447,1144.15143 C303.290883,1144.15143 301.811309,1144.47979 301.318117,1144.64332 C302.3045,1140.37981 305.92167,1135.29734 310.196862,1131.85409 C311.183245,1131.03448 311.676436,1129.72233 311.676436,1128.41083 C311.676436,1126.11554 309.70367,1123 305.757489,1123 C304.113085,1123 302.468681,1123.49189 301.318117,1124.63986 C293.096745,1132.01827 288,1141.85614 288,1152.34944 C288,1163.00756 295.07016,1169.07447 302.797691,1169.07447 C309.70367,1169.07447 315.622617,1163.17174 315.622617,1155.95687 Z"></path>
        </g>
    </g>
</svg>
