<?xml version="1.0" encoding="UTF-8"?>
<svg width="82px" height="16px" viewBox="0 0 512 336" version="1.1" xmlns="http://www.w3.org/2000/svg" xmlns:xlink="http://www.w3.org/1999/xlink">
    <!-- Generator: Sketch 49.3 (51167) - http://www.bohemiancoding.com/sketch -->
    <title>us</title>
    <desc>Created with Sketch.</desc>
    <defs></defs>
    <g id="Page-1" stroke="none" stroke-width="1" fill="none" fill-rule="evenodd">
        <g id="us" fill-rule="nonzero">
            <path d="M473.655,0.276 L38.345,0.276 C17.167,0.276 0,17.443 0,38.621 L0,297.38 C0,318.557 17.167,335.725 38.345,335.725 L473.655,335.725 C494.832,335.725 512,318.558 512,297.38 L512,38.621 C512,17.443 494.833,0.276 473.655,0.276 Z" id="Shape" fill="#F5F5F5"></path>
            <g id="Group" fill="#FF4B55">
                <path d="M2.109,26.08 L509.89,26.08 C504.694,11.063 490.438,0.276 473.655,0.276 L38.345,0.276 C21.561,0.276 7.306,11.063 2.109,26.08 Z" id="Shape"></path>
                <rect id="Rectangle-path" x="0" y="103.49" width="512" height="25.803"></rect>
                <rect id="Rectangle-path" x="0" y="51.88" width="512" height="25.803"></rect>
                <path d="M0,172.074 C0,176.949 3.953,180.902 8.828,180.902 L512,180.902 L512,155.098 L0,155.098 L0,172.074 Z" id="Shape"></path>
                <rect id="Rectangle-path" x="0" y="258.32" width="512" height="25.804"></rect>
                <path d="M509.891,309.92 L2.109,309.92 C7.306,324.937 21.562,335.724 38.345,335.724 L473.655,335.724 C490.439,335.724 504.694,324.937 509.891,309.92 Z" id="Shape"></path>
                <rect id="Rectangle-path" x="0" y="206.71" width="512" height="25.803"></rect>
            </g>
            <path d="M8.828,180.902 L229.518,180.902 C234.393,180.902 238.346,176.949 238.346,172.074 L238.346,9.103 C238.346,4.227 234.393,0.275 229.518,0.275 L38.345,0.275 C17.167,0.276 0,17.443 0,38.621 L0,172.074 C0,176.95 3.953,180.902 8.828,180.902 Z" id="Shape" fill="#41479B"></path>
            <g id="Group" transform="translate(14.000000, 19.000000)" fill="#F5F5F5">
                <path d="M10.789,1.537 L12.743,7.397 L18.92,7.444 C19.72,7.451 20.051,8.471 19.408,8.946 L14.439,12.615 L16.303,18.504 C16.545,19.266 15.676,19.898 15.025,19.432 L10,15.841 L4.975,19.433 C4.324,19.899 3.457,19.267 3.697,18.505 L5.561,12.616 L0.592,8.947 C-0.051,8.471 0.28,7.451 1.08,7.445 L7.257,7.398 L9.211,1.538 C9.463,0.778 10.535,0.778 10.789,1.537 Z" id="Shape"></path>
                <path d="M10.789,32.191 L12.743,38.051 L18.92,38.098 C19.72,38.105 20.051,39.124 19.408,39.6 L14.439,43.27 L16.303,49.159 C16.545,49.921 15.676,50.553 15.025,50.087 L10,46.496 L4.975,50.088 C4.324,50.553 3.457,49.922 3.697,49.16 L5.561,43.271 L0.592,39.601 C-0.051,39.125 0.28,38.106 1.08,38.099 L7.257,38.052 L9.211,32.192 C9.463,31.433 10.535,31.433 10.789,32.191 Z" id="Shape"></path>
                <path d="M10.789,62.846 L12.743,68.706 L18.92,68.753 C19.72,68.76 20.051,69.779 19.408,70.255 L14.439,73.925 L16.303,79.814 C16.545,80.576 15.676,81.208 15.025,80.742 L10,77.151 L4.975,80.743 C4.324,81.208 3.457,80.578 3.697,79.815 L5.561,73.926 L0.592,70.256 C-0.051,69.78 0.28,68.761 1.08,68.754 L7.257,68.707 L9.211,62.847 C9.463,62.087 10.535,62.087 10.789,62.846 Z" id="Shape"></path>
                <path d="M10.789,93.5 L12.743,99.36 L18.92,99.407 C19.72,99.414 20.051,100.434 19.408,100.909 L14.439,104.579 L16.303,110.468 C16.545,111.23 15.676,111.862 15.025,111.396 L10,107.805 L4.975,111.397 C4.324,111.862 3.457,111.231 3.697,110.469 L5.561,104.58 L0.592,100.91 C-0.051,100.436 0.28,99.415 1.08,99.408 L7.257,99.361 L9.211,93.501 C9.463,92.741 10.535,92.741 10.789,93.5 Z" id="Shape"></path>
                <path d="M10.789,124.154 L12.743,130.014 L18.92,130.061 C19.72,130.068 20.051,131.087 19.408,131.563 L14.439,135.233 L16.303,141.122 C16.545,141.884 15.676,142.516 15.025,142.05 L10,138.459 L4.975,142.051 C4.324,142.516 3.457,141.885 3.697,141.123 L5.561,135.234 L0.592,131.564 C-0.051,131.088 0.28,130.069 1.08,130.062 L7.257,130.015 L9.211,124.155 C9.463,123.396 10.535,123.396 10.789,124.154 Z" id="Shape"></path>
                <path d="M34.582,16.566 L36.536,22.426 L42.713,22.473 C43.513,22.48 43.844,23.5 43.201,23.975 L38.232,27.645 L40.096,33.534 C40.338,34.296 39.469,34.928 38.818,34.462 L33.793,30.87 L28.768,34.462 C28.117,34.927 27.25,34.296 27.49,33.534 L29.354,27.645 L24.385,23.975 C23.742,23.499 24.073,22.48 24.873,22.473 L31.05,22.426 L33.004,16.566 C33.256,15.808 34.329,15.808 34.582,16.566 Z" id="Shape"></path>
                <path d="M34.582,47.221 L36.536,53.081 L42.713,53.128 C43.513,53.135 43.844,54.155 43.201,54.63 L38.232,58.3 L40.096,64.189 C40.338,64.951 39.469,65.583 38.818,65.117 L33.793,61.525 L28.768,65.117 C28.117,65.582 27.25,64.952 27.49,64.189 L29.354,58.3 L24.385,54.63 C23.742,54.156 24.073,53.135 24.873,53.128 L31.05,53.081 L33.004,47.221 C33.256,46.462 34.329,46.462 34.582,47.221 Z" id="Shape"></path>
                <path d="M34.582,77.875 L36.536,83.735 L42.713,83.782 C43.513,83.789 43.844,84.808 43.201,85.284 L38.232,88.954 L40.096,94.843 C40.338,95.605 39.469,96.237 38.818,95.771 L33.793,92.179 L28.768,95.771 C28.117,96.236 27.25,95.605 27.49,94.843 L29.354,88.954 L24.385,85.284 C23.742,84.808 24.073,83.789 24.873,83.782 L31.05,83.735 L33.004,77.875 C33.256,77.116 34.329,77.116 34.582,77.875 Z" id="Shape"></path>
                <path d="M34.582,108.529 L36.536,114.389 L42.713,114.436 C43.513,114.443 43.844,115.462 43.201,115.938 L38.232,119.608 L40.096,125.497 C40.338,126.259 39.469,126.891 38.818,126.425 L33.793,122.833 L28.768,126.425 C28.117,126.891 27.25,126.259 27.49,125.497 L29.354,119.608 L24.385,115.938 C23.742,115.462 24.073,114.443 24.873,114.436 L31.05,114.389 L33.004,108.529 C33.256,107.771 34.329,107.771 34.582,108.529 Z" id="Shape"></path>
                <path d="M58.375,1.537 L60.329,7.397 L66.506,7.444 C67.306,7.451 67.637,8.471 66.994,8.946 L62.025,12.615 L63.889,18.504 C64.131,19.266 63.262,19.898 62.611,19.432 L57.586,15.84 L52.561,19.432 C51.91,19.898 51.043,19.266 51.283,18.504 L53.147,12.615 L48.178,8.946 C47.535,8.47 47.866,7.45 48.666,7.444 L54.843,7.397 L56.797,1.537 C57.049,0.778 58.122,0.778 58.375,1.537 Z" id="Shape"></path>
                <path d="M58.375,32.191 L60.329,38.051 L66.506,38.098 C67.306,38.105 67.637,39.124 66.994,39.6 L62.025,43.27 L63.889,49.159 C64.131,49.921 63.262,50.553 62.611,50.087 L57.586,46.495 L52.561,50.087 C51.91,50.552 51.043,49.921 51.283,49.159 L53.147,43.27 L48.178,39.6 C47.535,39.124 47.866,38.105 48.666,38.098 L54.843,38.051 L56.797,32.191 C57.049,31.433 58.122,31.433 58.375,32.191 Z" id="Shape"></path>
                <path d="M58.375,62.846 L60.329,68.706 L66.506,68.753 C67.306,68.76 67.637,69.779 66.994,70.255 L62.025,73.925 L63.889,79.814 C64.131,80.576 63.262,81.208 62.611,80.742 L57.586,77.15 L52.561,80.742 C51.91,81.207 51.043,80.577 51.283,79.814 L53.147,73.925 L48.178,70.255 C47.535,69.779 47.866,68.76 48.666,68.753 L54.843,68.706 L56.797,62.846 C57.049,62.087 58.122,62.087 58.375,62.846 Z" id="Shape"></path>
                <path d="M58.375,93.5 L60.329,99.36 L66.506,99.407 C67.306,99.414 67.637,100.434 66.994,100.909 L62.025,104.579 L63.889,110.468 C64.131,111.23 63.262,111.862 62.611,111.396 L57.586,107.804 L52.561,111.396 C51.91,111.861 51.043,111.23 51.283,110.468 L53.147,104.579 L48.178,100.909 C47.535,100.435 47.866,99.414 48.666,99.407 L54.843,99.36 L56.797,93.5 C57.049,92.741 58.122,92.741 58.375,93.5 Z" id="Shape"></path>
                <path d="M58.375,124.154 L60.329,130.014 L66.506,130.061 C67.306,130.068 67.637,131.087 66.994,131.563 L62.025,135.233 L63.889,141.122 C64.131,141.884 63.262,142.516 62.611,142.05 L57.586,138.458 L52.561,142.05 C51.91,142.515 51.043,141.884 51.283,141.122 L53.147,135.233 L48.178,131.563 C47.535,131.087 47.866,130.068 48.666,130.061 L54.843,130.014 L56.797,124.154 C57.049,123.396 58.122,123.396 58.375,124.154 Z" id="Shape"></path>
                <path d="M82.169,16.566 L84.123,22.426 L90.3,22.473 C91.1,22.48 91.431,23.5 90.788,23.975 L85.819,27.645 L87.683,33.534 C87.925,34.296 87.056,34.928 86.405,34.462 L81.38,30.87 L76.355,34.462 C75.704,34.927 74.837,34.296 75.077,33.534 L76.941,27.645 L71.972,23.975 C71.329,23.499 71.66,22.48 72.46,22.473 L78.637,22.426 L80.591,16.566 C80.842,15.808 81.916,15.808 82.169,16.566 Z" id="Shape"></path>
                <path d="M82.169,47.221 L84.123,53.081 L90.3,53.128 C91.1,53.135 91.431,54.155 90.788,54.63 L85.819,58.3 L87.683,64.189 C87.925,64.951 87.056,65.583 86.405,65.117 L81.38,61.525 L76.355,65.117 C75.704,65.582 74.837,64.952 75.077,64.189 L76.941,58.3 L71.972,54.63 C71.329,54.156 71.66,53.135 72.46,53.128 L78.637,53.081 L80.591,47.221 C80.842,46.462 81.916,46.462 82.169,47.221 Z" id="Shape"></path>
                <path d="M82.169,77.875 L84.123,83.735 L90.3,83.782 C91.1,83.789 91.431,84.808 90.788,85.284 L85.819,88.954 L87.683,94.843 C87.925,95.605 87.056,96.237 86.405,95.771 L81.38,92.179 L76.355,95.771 C75.704,96.236 74.837,95.605 75.077,94.843 L76.941,88.954 L71.972,85.284 C71.329,84.808 71.66,83.789 72.46,83.782 L78.637,83.735 L80.591,77.875 C80.842,77.116 81.916,77.116 82.169,77.875 Z" id="Shape"></path>
                <path d="M82.169,108.529 L84.123,114.389 L90.3,114.436 C91.1,114.443 91.431,115.462 90.788,115.938 L85.819,119.608 L87.683,125.497 C87.925,126.259 87.056,126.891 86.405,126.425 L81.38,122.833 L76.355,126.425 C75.704,126.891 74.837,126.259 75.077,125.497 L76.941,119.608 L71.972,115.938 C71.329,115.462 71.66,114.443 72.46,114.436 L78.637,114.389 L80.591,108.529 C80.842,107.771 81.916,107.771 82.169,108.529 Z" id="Shape"></path>
                <path d="M105.962,1.537 L107.916,7.397 L114.093,7.444 C114.893,7.451 115.224,8.471 114.581,8.946 L109.612,12.615 L111.476,18.504 C111.718,19.266 110.849,19.898 110.198,19.432 L105.172,15.841 L100.147,19.433 C99.496,19.899 98.629,19.267 98.869,18.505 L100.733,12.616 L95.764,8.947 C95.121,8.471 95.452,7.451 96.252,7.445 L102.429,7.398 L104.383,1.538 C104.636,0.778 105.709,0.778 105.962,1.537 Z" id="Shape"></path>
                <path d="M105.962,32.191 L107.916,38.051 L114.093,38.098 C114.893,38.105 115.224,39.124 114.581,39.6 L109.612,43.27 L111.476,49.159 C111.718,49.921 110.849,50.553 110.198,50.087 L105.172,46.495 L100.147,50.087 C99.496,50.552 98.629,49.921 98.869,49.159 L100.733,43.27 L95.764,39.6 C95.121,39.124 95.452,38.105 96.252,38.098 L102.429,38.051 L104.383,32.191 C104.636,31.433 105.709,31.433 105.962,32.191 Z" id="Shape"></path>
                <path d="M105.962,62.846 L107.916,68.706 L114.093,68.753 C114.893,68.76 115.224,69.779 114.581,70.255 L109.612,73.925 L111.476,79.814 C111.718,80.576 110.849,81.208 110.198,80.742 L105.172,77.149 L100.147,80.741 C99.496,81.206 98.629,80.575 98.869,79.813 L100.733,73.924 L95.764,70.254 C95.121,69.778 95.452,68.759 96.252,68.752 L102.429,68.705 L104.383,62.845 C104.636,62.087 105.709,62.087 105.962,62.846 Z" id="Shape"></path>
                <path d="M105.962,93.5 L107.916,99.36 L114.093,99.407 C114.893,99.414 115.224,100.434 114.581,100.909 L109.612,104.579 L111.476,110.468 C111.718,111.23 110.849,111.862 110.198,111.396 L105.172,107.804 L100.147,111.396 C99.496,111.861 98.629,111.23 98.869,110.468 L100.733,104.579 L95.764,100.909 C95.121,100.435 95.452,99.414 96.252,99.407 L102.429,99.36 L104.383,93.5 C104.636,92.741 105.709,92.741 105.962,93.5 Z" id="Shape"></path>
                <path d="M105.962,124.154 L107.916,130.014 L114.093,130.061 C114.893,130.068 115.224,131.087 114.581,131.563 L109.612,135.233 L111.476,141.122 C111.718,141.884 110.849,142.516 110.198,142.05 L105.172,138.458 L100.147,142.05 C99.496,142.515 98.629,141.884 98.869,141.122 L100.733,135.233 L95.764,131.563 C95.121,131.087 95.452,130.068 96.252,130.061 L102.429,130.014 L104.383,124.154 C104.636,123.396 105.709,123.396 105.962,124.154 Z" id="Shape"></path>
                <path d="M129.755,16.566 L131.709,22.426 L137.886,22.473 C138.686,22.48 139.017,23.5 138.374,23.975 L133.405,27.645 L135.269,33.534 C135.511,34.296 134.642,34.928 133.991,34.462 L128.966,30.87 L123.941,34.462 C123.29,34.927 122.423,34.296 122.663,33.534 L124.527,27.645 L119.558,23.975 C118.915,23.499 119.246,22.48 120.046,22.473 L126.223,22.426 L128.177,16.566 C128.43,15.808 129.502,15.808 129.755,16.566 Z" id="Shape"></path>
                <path d="M129.755,47.221 L131.709,53.081 L137.886,53.128 C138.686,53.135 139.017,54.155 138.374,54.63 L133.405,58.3 L135.269,64.189 C135.511,64.951 134.642,65.583 133.991,65.117 L128.966,61.525 L123.941,65.117 C123.29,65.582 122.423,64.952 122.663,64.189 L124.527,58.3 L119.558,54.63 C118.915,54.156 119.246,53.135 120.046,53.128 L126.223,53.081 L128.177,47.221 C128.43,46.462 129.502,46.462 129.755,47.221 Z" id="Shape"></path>
                <path d="M129.755,77.875 L131.709,83.735 L137.886,83.782 C138.686,83.789 139.017,84.808 138.374,85.284 L133.405,88.954 L135.269,94.843 C135.511,95.605 134.642,96.237 133.991,95.771 L128.966,92.179 L123.941,95.771 C123.29,96.236 122.423,95.605 122.663,94.843 L124.527,88.954 L119.558,85.284 C118.915,84.808 119.246,83.789 120.046,83.782 L126.223,83.735 L128.177,77.875 C128.43,77.116 129.502,77.116 129.755,77.875 Z" id="Shape"></path>
                <path d="M129.755,108.529 L131.709,114.389 L137.886,114.436 C138.686,114.443 139.017,115.462 138.374,115.938 L133.405,119.608 L135.269,125.497 C135.511,126.259 134.642,126.891 133.991,126.425 L128.966,122.833 L123.941,126.425 C123.29,126.891 122.423,126.259 122.663,125.497 L124.527,119.608 L119.558,115.938 C118.915,115.462 119.246,114.443 120.046,114.436 L126.223,114.389 L128.177,108.529 C128.43,107.771 129.502,107.771 129.755,108.529 Z" id="Shape"></path>
                <path d="M153.549,1.537 L155.503,7.397 L161.68,7.444 C162.48,7.451 162.811,8.471 162.168,8.946 L157.199,12.615 L159.063,18.504 C159.305,19.266 158.436,19.898 157.785,19.432 L152.76,15.84 L147.735,19.432 C147.084,19.898 146.217,19.266 146.457,18.504 L148.321,12.615 L143.352,8.946 C142.709,8.47 143.04,7.45 143.84,7.444 L150.017,7.397 L151.971,1.537 C152.222,0.778 153.296,0.778 153.549,1.537 Z" id="Shape"></path>
                <path d="M153.549,32.191 L155.503,38.051 L161.68,38.098 C162.48,38.105 162.811,39.124 162.168,39.6 L157.199,43.27 L159.063,49.159 C159.305,49.921 158.436,50.553 157.785,50.087 L152.76,46.495 L147.735,50.087 C147.084,50.552 146.217,49.921 146.457,49.159 L148.321,43.27 L143.352,39.6 C142.709,39.124 143.04,38.105 143.84,38.098 L150.017,38.051 L151.971,32.191 C152.222,31.433 153.296,31.433 153.549,32.191 Z" id="Shape"></path>
                <path d="M153.549,62.846 L155.503,68.706 L161.68,68.753 C162.48,68.76 162.811,69.779 162.168,70.255 L157.199,73.925 L159.063,79.814 C159.305,80.576 158.436,81.208 157.785,80.742 L152.76,77.15 L147.735,80.742 C147.084,81.207 146.217,80.577 146.457,79.814 L148.321,73.925 L143.352,70.255 C142.709,69.779 143.04,68.76 143.84,68.753 L150.017,68.706 L151.971,62.846 C152.222,62.087 153.296,62.087 153.549,62.846 Z" id="Shape"></path>
                <path d="M153.549,93.5 L155.503,99.36 L161.68,99.407 C162.48,99.414 162.811,100.434 162.168,100.909 L157.199,104.579 L159.063,110.468 C159.305,111.23 158.436,111.862 157.785,111.396 L152.76,107.804 L147.735,111.396 C147.084,111.861 146.217,111.23 146.457,110.468 L148.321,104.579 L143.352,100.909 C142.709,100.435 143.04,99.414 143.84,99.407 L150.017,99.36 L151.971,93.5 C152.222,92.741 153.296,92.741 153.549,93.5 Z" id="Shape"></path>
                <path d="M153.549,124.154 L155.503,130.014 L161.68,130.061 C162.48,130.068 162.811,131.087 162.168,131.563 L157.199,135.233 L159.063,141.122 C159.305,141.884 158.436,142.516 157.785,142.05 L152.76,138.458 L147.735,142.05 C147.084,142.515 146.217,141.884 146.457,141.122 L148.321,135.233 L143.352,131.563 C142.709,131.087 143.04,130.068 143.84,130.061 L150.017,130.014 L151.971,124.154 C152.222,123.396 153.296,123.396 153.549,124.154 Z" id="Shape"></path>
                <path d="M177.342,16.566 L179.296,22.426 L185.473,22.473 C186.273,22.48 186.604,23.5 185.961,23.975 L180.992,27.645 L182.856,33.534 C183.098,34.296 182.229,34.928 181.578,34.462 L176.553,30.87 L171.528,34.462 C170.877,34.927 170.01,34.296 170.25,33.534 L172.114,27.645 L167.145,23.975 C166.502,23.499 166.833,22.48 167.633,22.473 L173.81,22.426 L175.764,16.566 C176.016,15.808 177.089,15.808 177.342,16.566 Z" id="Shape"></path>
                <path d="M177.342,47.221 L179.296,53.081 L185.473,53.128 C186.273,53.135 186.604,54.155 185.961,54.63 L180.992,58.3 L182.856,64.189 C183.098,64.951 182.229,65.583 181.578,65.117 L176.553,61.525 L171.528,65.117 C170.877,65.582 170.01,64.952 170.25,64.189 L172.114,58.3 L167.145,54.63 C166.502,54.156 166.833,53.135 167.633,53.128 L173.81,53.081 L175.764,47.221 C176.016,46.462 177.089,46.462 177.342,47.221 Z" id="Shape"></path>
                <path d="M177.342,77.875 L179.296,83.735 L185.473,83.782 C186.273,83.789 186.604,84.808 185.961,85.284 L180.992,88.954 L182.856,94.843 C183.098,95.605 182.229,96.237 181.578,95.771 L176.553,92.179 L171.528,95.771 C170.877,96.236 170.01,95.605 170.25,94.843 L172.114,88.954 L167.145,85.284 C166.502,84.808 166.833,83.789 167.633,83.782 L173.81,83.735 L175.764,77.875 C176.016,77.116 177.089,77.116 177.342,77.875 Z" id="Shape"></path>
                <path d="M177.342,108.529 L179.296,114.389 L185.473,114.436 C186.273,114.443 186.604,115.462 185.961,115.938 L180.992,119.608 L182.856,125.497 C183.098,126.259 182.229,126.891 181.578,126.425 L176.553,122.833 L171.528,126.425 C170.877,126.891 170.01,126.259 170.25,125.497 L172.114,119.608 L167.145,115.938 C166.502,115.462 166.833,114.443 167.633,114.436 L173.81,114.389 L175.764,108.529 C176.016,107.771 177.089,107.771 177.342,108.529 Z" id="Shape"></path>
                <path d="M201.136,1.537 L203.09,7.397 L209.267,7.444 C210.067,7.451 210.398,8.471 209.755,8.946 L204.786,12.615 L206.65,18.504 C206.892,19.266 206.023,19.898 205.372,19.432 L200.347,15.84 L195.322,19.432 C194.671,19.898 193.804,19.266 194.044,18.504 L195.908,12.615 L190.939,8.946 C190.296,8.47 190.627,7.45 191.427,7.444 L197.604,7.397 L199.558,1.537 C199.81,0.778 200.882,0.778 201.136,1.537 Z" id="Shape"></path>
                <path d="M201.136,32.191 L203.09,38.051 L209.267,38.098 C210.067,38.105 210.398,39.124 209.755,39.6 L204.786,43.27 L206.65,49.159 C206.892,49.921 206.023,50.553 205.372,50.087 L200.347,46.495 L195.322,50.087 C194.671,50.552 193.804,49.921 194.044,49.159 L195.908,43.27 L190.939,39.6 C190.296,39.124 190.627,38.105 191.427,38.098 L197.604,38.051 L199.558,32.191 C199.81,31.433 200.882,31.433 201.136,32.191 Z" id="Shape"></path>
                <path d="M201.136,62.846 L203.09,68.706 L209.267,68.753 C210.067,68.76 210.398,69.779 209.755,70.255 L204.786,73.925 L206.65,79.814 C206.892,80.576 206.023,81.208 205.372,80.742 L200.347,77.15 L195.322,80.742 C194.671,81.207 193.804,80.577 194.044,79.814 L195.908,73.925 L190.939,70.255 C190.296,69.779 190.627,68.76 191.427,68.753 L197.604,68.706 L199.558,62.846 C199.81,62.087 200.882,62.087 201.136,62.846 Z" id="Shape"></path>
                <path d="M201.136,93.5 L203.09,99.36 L209.267,99.407 C210.067,99.414 210.398,100.434 209.755,100.909 L204.786,104.579 L206.65,110.468 C206.892,111.23 206.023,111.862 205.372,111.396 L200.347,107.804 L195.322,111.396 C194.671,111.861 193.804,111.23 194.044,110.468 L195.908,104.579 L190.939,100.909 C190.296,100.435 190.627,99.414 191.427,99.407 L197.604,99.36 L199.558,93.5 C199.81,92.741 200.882,92.741 201.136,93.5 Z" id="Shape"></path>
                <path d="M201.136,124.154 L203.09,130.014 L209.267,130.061 C210.067,130.068 210.398,131.087 209.755,131.563 L204.786,135.233 L206.65,141.122 C206.892,141.884 206.023,142.516 205.372,142.05 L200.347,138.458 L195.322,142.05 C194.671,142.515 193.804,141.884 194.044,141.122 L195.908,135.233 L190.939,131.563 C190.296,131.087 190.627,130.068 191.427,130.061 L197.604,130.014 L199.558,124.154 C199.81,123.396 200.882,123.396 201.136,124.154 Z" id="Shape"></path>
            </g>
        </g>
    </g>
</svg>
