<?xml version="1.0" encoding="UTF-8"?>
<svg width="49px" height="16px" viewBox="0 0 49 16" version="1.1" xmlns="http://www.w3.org/2000/svg" xmlns:xlink="http://www.w3.org/1999/xlink">
    <!-- Generator: Sketch 49.3 (51167) - http://www.bohemiancoding.com/sketch -->
    <title>aircall-logotype</title>
    <desc>Created with Sketch.</desc>
    <defs>
        <linearGradient x1="50%" y1="0%" x2="50%" y2="100%" id="linearGradient-1">
            <stop stop-color="#2AC420" offset="0%"></stop>
            <stop stop-color="#2CAD00" offset="100%"></stop>
        </linearGradient>
    </defs>
    <g id="Page-1" stroke="none" stroke-width="1" fill="none" fill-rule="evenodd">
        <g id="aircall-logotype" fill-rule="nonzero">
            <path d="M47,2 C47,1.4 47.4,1 48,1 C48.6,1 49,1.4 49,2 L49,15 C49,15.6 48.6,16 48,16 C47.4,16 47,15.6 47,15 L47,2 Z" id="Shape" fill="#424242"></path>
            <path d="M43,2 C43,1.4 43.4,1 44,1 C44.6,1 45,1.4 45,2 L45,15 C45,15.6 44.6,16 44,16 C43.4,16 43,15.6 43,15 L43,2 Z" id="Shape" fill="#424242"></path>
            <path d="M40,6 C39.4,6 39,6.4 39,7 C38.2,6.4 37.1,6 36,6 C33.2,6 31,8.2 31,11 C31,13.8 33.2,16 36,16 C37.1,16 38.2,15.6 39,15 C39,15.5 39.4,16 40,16 C40.6,16 41,15.6 41,15 L41,7 C41,6.5 40.6,6 40,6 Z M36,14 C34.3,14 33,12.7 33,11 C33,9.3 34.3,8 36,8 C37.7,8 39,9.3 39,11 C39,12.7 37.7,14 36,14 Z" id="Shape" fill="#424242"></path>
            <path d="M30.2,7.2 C29.3,6.5 28.2,6 27,6 C24.2,6 22,8.2 22,11 C22,13.8 24.2,16 27,16 C28.2,16 29.4,15.6 30.3,14.8 C30.7,14.4 30.8,13.8 30.4,13.4 C30,13 29.4,12.9 29,13.3 C28.5,13.8 27.8,14 27,14 C25.3,14 24,12.7 24,11 C24,9.3 25.3,8 27,8 C27.7,8 28.4,8.2 28.9,8.7 C29.3,9.1 30,9 30.3,8.6 C30.7,8.1 30.6,7.5 30.2,7.2 Z" id="Shape" fill="#424242"></path>
            <path d="M18,7 C18.8,6.4 19.9,6 21,6 C21.6,6 22,6.4 22,7 C22,7.6 21.6,8 21,8 C19.3,8 18,9.3 18,11 L18,15 C18,15.5 17.6,16 17,16 C16.4,16 16,15.5 16,15 L16,7 C16,6.5 16.4,6 17,6 C17.6,6 18,6.5 18,7 Z" id="Shape" fill="#424242"></path>
            <circle id="Oval" fill="url(#linearGradient-1)" cx="13" cy="2" r="2"></circle>
            <path d="M12,7 C12,6.5 12.4,6 13,6 C13.6,6 14,6.5 14,7 L14,15 C14,15.5 13.6,16 13,16 C12.4,16 12,15.5 12,15 L12,7 Z" id="Shape" fill="#424242"></path>
            <path d="M9,6 C8.4,6 8,6.4 8,7 C7.2,6.4 6.1,6 5,6 C2.2,6 0,8.2 0,11 C0,13.8 2.2,16 5,16 C6.1,16 7.2,15.6 8,15 C8,15.5 8.4,16 9,16 C9.6,16 10,15.6 10,15 L10,7 C10,6.5 9.6,6 9,6 Z M5,14 C3.3,14 2,12.7 2,11 C2,9.3 3.3,8 5,8 C6.7,8 8,9.3 8,11 C8,12.7 6.7,14 5,14 Z" id="Shape" fill="#424242"></path>
        </g>
    </g>
</svg>