<?xml version="1.0" encoding="UTF-8"?>
<svg width="500px" height="480px" viewBox="0 0 2368 1816" version="1.1" xmlns="http://www.w3.org/2000/svg" xmlns:xlink="http://www.w3.org/1999/xlink">
    <!-- Generator: Sketch 49.3 (51167) - http://www.bohemiancoding.com/sketch -->
    <title>ecommerce_illu</title>
    <desc>Created with Sketch.</desc>
    <defs></defs>
    <g id="Page-1" stroke="none" stroke-width="1" fill="none" fill-rule="evenodd">
        <g id="ecommerce_illu" fill-rule="nonzero">
            <path d="M2004.8,1596.3 C1623.1,1826.2 1160.1,1878.2 737,1738.6 L307.2,1596.8 L2004.8,1596.3 Z" id="Shape" fill="#8DD4FD"></path>
            <rect id="Rectangle-path" fill="#DCB24E" x="1382.6" y="912.2" width="684.7" height="684.7"></rect>
            <polygon id="Shape" fill="#B38230" points="1904.3 501 2279.6 501 2067.2 912.2 1691.9 912.2"></polygon>
            <g id="Group" transform="translate(559.000000, 687.000000)" fill="#1DBF4B">
                <rect id="Rectangle-path" x="0.7" y="0.4" width="822.8" height="909.5"></rect>
            </g>
            <polygon id="Shape" fill="#29E467" points="559.7 687.4 559.7 1596.9 218.8 1596.9 448.8 687.4"></polygon>
            <rect id="Rectangle-path" fill="#F1F1F2" x="1748.2" y="1373" width="277.8" height="175.8"></rect>
            <path d="M494,688.5 C490.6,712.8 487.1,737.1 483.7,761.3 C475.5,819.6 467.2,878 459,936.3 C449,1007.2 439,1078.1 429,1148.9 C420.4,1209.7 411.8,1270.5 403.2,1331.3 C400.3,1351.5 397.5,1371.8 394.6,1392 C393.3,1401.3 390.7,1411.3 390.5,1420.8 C390.5,1421.2 390.4,1421.6 390.3,1422 C389.8,1425.3 394.9,1426.8 395.4,1423.4 C398.8,1399.1 402.3,1374.8 405.7,1350.6 C413.9,1292.3 422.2,1233.9 430.4,1175.6 C440.4,1104.7 450.4,1033.8 460.4,963 C469,902.2 477.6,841.4 486.2,780.6 C489.1,760.4 491.9,740.1 494.8,719.9 C496.1,710.6 498.7,700.6 498.9,691.1 C498.9,690.7 499,690.3 499.1,689.9 C499.6,686.5 494.5,685.1 494,688.5 Z" id="Shape" fill="#1DBF4B"></path>
            <circle id="Oval" fill="#FFFFFF" cx="820.6" cy="803.3" r="18.6"></circle>
            <circle id="Oval" fill="#FFFFFF" cx="1107.3" cy="803.3" r="18.6"></circle>
            <path d="M1104.6,801 C1104.6,861.7 1104.6,922.5 1104.6,983.2 C1104.6,1023.7 1104.6,1064.2 1104.6,1104.7 C1104.6,1125.3 1105.8,1146.5 1104.1,1167 C1098.8,1230.2 1049.6,1283.3 987.1,1293.8 C924.4,1304.4 860.9,1270.4 834.8,1212.5 C822.1,1184.3 822.5,1155.4 822.5,1125.5 C822.5,1088.6 822.5,1051.6 822.5,1014.7 C822.5,944.8 822.5,874.9 822.5,804.9 C822.5,803.5 822.5,802.2 822.5,800.8 C822.5,797.4 817.2,797.4 817.2,800.8 C817.2,863.9 817.2,927 817.2,990.1 C817.2,1031.1 817.2,1072.2 817.2,1113.2 C817.2,1137.8 815.4,1163.6 821,1187.8 C834.5,1246.1 884.1,1291.4 943.4,1299.6 C1002,1307.7 1061.1,1278.8 1090.6,1227.5 C1103.4,1205.2 1109.8,1179.9 1110,1154.2 C1110,1147.2 1110,1140.1 1110,1133.1 C1110,1096.8 1110,1060.4 1110,1024.1 C1110,951 1110,877.9 1110,804.9 C1110,803.5 1110,802.2 1110,800.8 C1109.9,797.6 1104.6,797.6 1104.6,801 Z" id="Shape" fill="#FFFFFF"></path>
            <path d="M1192.9,1705.2 L1316.8,1194.4 L1547.3,1194.4 C1571.5,1194.4 1589.3,1217.1 1583.6,1240.6 L1478,1676.8 C1473.9,1693.5 1458.9,1705.2 1441.7,1705.2 L1192.9,1705.2 Z" id="Shape" fill="#0E1B62"></path>
            <path d="M1108.9,42.5 L1108.9,357.4 L1033.8,276.3 L761.2,276.3 C739.5,276.3 721.9,257.3 721.9,233.8 L721.9,42.5 C721.9,19.1 739.5,0 761.2,0 L1069.5,0 C1091.3,0 1108.9,19.1 1108.9,42.5 Z" id="Shape" fill="#8CD3FD"></path>
            <path d="M2240.3,256.2 L2240.3,412.2 C2240.3,435.6 2221.3,454.7 2197.8,454.7 L1620.3,454.7 L1539.2,535.8 L1539.2,256.2 C1539.2,232.8 1558.2,213.7 1581.7,213.7 L2197.8,213.7 C2221.2,213.7 2240.3,232.8 2240.3,256.2 Z" id="Shape" fill="#F1F1F1"></path>
            <path d="M1070.5,687.4 L496.5,687.4 C500.7,656.4 528.2,625 591.8,601.6 C592.9,601.2 593.9,600.8 594.9,600.4 C595.4,600.2 595.9,600 596.4,599.8 C636,583 646.7,547.7 667.6,512.3 C670.6,507.2 673.8,502 677,497 C694.4,469.6 714.1,443.6 735.9,419.5 C758.3,394.8 784.2,366.3 820.8,369.6 C818.1,418.6 846,444.4 880,459.9 C901.6,469.7 927.9,475.6 952.8,483.5 C977.6,491.3 1001,501.1 1016.8,518.5 C1048.5,553.6 1037.7,607.2 1047.2,648.4 C1050.6,662.5 1059.5,676.7 1070.5,687.4 Z" id="Shape" fill="#FBEAE4"></path>
            <path d="M1355,650.2 C1352.8,671.8 1348.8,680.5 1343.9,687.4 L1070.4,687.4 C1094.4,676.1 1117,658.2 1134.9,640 C1165.8,608.6 1193.7,575.1 1218.4,539.9 C1225.7,529.4 1232.8,518.7 1240.8,508.6 C1244.5,503.9 1248.3,499.4 1252.5,495 C1265.7,481.2 1283.8,470.1 1303.6,464.7 C1294.7,528.3 1361.7,586.5 1355,650.2 Z" id="Shape" fill="#FBEAE4"></path>
            <path d="M1556,1194.3 L1300.8,1194.3 C1287.3,1194.3 1275.6,1203.5 1272.3,1216.6 L1162.8,1668.9 C1158.3,1687.4 1172.2,1705.2 1191.3,1705.2 L1432.1,1705.2 L1556,1194.3 Z" id="Shape" fill="#EFFBFF"></path>
            <path d="M1329.1,1653.7 C1327.8,1677.1 1292.6,1677.3 1292.6,1653.7 C1292.6,1630.1 1327.8,1630.3 1329.1,1653.7 C1329.3,1657.1 1334.6,1657.1 1334.4,1653.7 C1333.7,1640.9 1324.2,1630.2 1310.9,1630.2 C1298.1,1630.2 1287.3,1640.9 1287.4,1653.7 C1287.5,1666.1 1297.4,1676.6 1309.8,1677.2 C1323.6,1677.9 1333.8,1667 1334.5,1653.7 C1334.6,1650.3 1329.3,1650.3 1329.1,1653.7 Z" id="Shape" fill="#29449F"></path>
            <path d="M1379.2,1225.6 C1404.6,1225.6 1430.1,1225.6 1455.5,1225.6 C1458.9,1225.6 1458.9,1220.3 1455.5,1220.3 C1430.1,1220.3 1404.6,1220.3 1379.2,1220.3 C1375.8,1220.3 1375.7,1225.6 1379.2,1225.6 Z" id="Shape" fill="#324DA4"></path>
            <path d="M676.8,668.9 C672.4,674.8 667.6,681 663.7,687.4 L496.5,687.4 C500.7,656.4 528.2,625 591.8,601.6 C592.9,601.2 593.9,600.8 594.9,600.4 C595.4,600.2 595.9,600 596.4,599.8 C636,583 646.7,547.7 667.6,512.3 C670.6,507.2 673.8,502 677,497 C686.4,511.3 697.3,525 704,540.4 C722.4,582.7 705.2,630.9 676.8,668.9 Z" id="Shape" fill="#F9D8CC"></path>
            <path d="M938.1,652.6 C941.8,644 943.2,634.6 940.6,623.7 C938.4,614.2 933.3,605.2 926.1,597.8 C918.9,590.4 909.2,584.2 904.7,575.1 C900.3,566.1 900.5,555.8 903.3,546.5 C908,531.4 918.8,517.5 929.4,504.9 C932.3,501.4 953,483.4 953,483.4 C977.8,491.2 1001.2,501 1017,518.4 C1048.7,553.5 1037.9,607.1 1047.4,648.3 C1050.7,662.4 1059.6,676.6 1070.5,687.4 C1070.5,687.4 910.2,687.4 910.2,687.4 C921.7,676.2 932.5,665.3 938.1,652.6 Z" id="Shape" fill="#FDF4F0"></path>
            <path d="M1355,650.2 C1352.8,671.8 1348.8,680.5 1343.9,687.4 L1233.9,687.4 C1242.5,674.4 1254.6,662.4 1261.5,648.6 C1267.7,636.3 1269.7,622.4 1267.2,609.2 C1264.3,593.9 1255.8,580 1249.8,565.5 C1242.4,547.4 1239.1,527.8 1240.6,508.7 C1244.3,504 1248.1,499.5 1252.3,495.1 C1265.5,481.3 1283.6,470.2 1303.4,464.8 C1294.7,528.3 1361.7,586.5 1355,650.2 Z" id="Shape" fill="#F9D8CC"></path>
            <g id="Group" transform="translate(2110.000000, 746.000000)">
                <path d="M2.8,166.2 L207.2,2.9" id="Shape" fill="#4157C5"></path>
                <path d="M4.7,168 C64.3,120.4 124,72.7 183.6,25.1 C192.1,18.3 200.6,11.5 209.1,4.7 C211.8,2.6 208,-1.2 205.3,0.9 C145.7,48.5 86,96.2 26.4,143.8 C17.9,150.6 9.4,157.4 0.9,164.2 C-1.7,166.4 2.1,170.2 4.7,168 Z" id="Shape" fill="#C6B142"></path>
            </g>
            <g id="Group" transform="translate(2110.000000, 898.000000)">
                <path d="M2.8,56 L255,3.1" id="Shape" fill="#4157C5"></path>
                <path d="M3.6,58.5 C77.3,43 151,27.6 224.7,12.1 C235,9.9 245.4,7.8 255.7,5.6 C259,4.9 257.6,-0.2 254.3,0.5 C180.6,16 106.9,31.4 33.2,46.9 C22.9,49.1 12.5,51.2 2.2,53.4 C-1.2,54.1 0.2,59.2 3.6,58.5 Z" id="Shape" fill="#C6B142"></path>
            </g>
            <g id="Group" transform="translate(2110.000000, 987.000000)">
                <path d="M2.8,3.4 L183.3,80.4" id="Shape" fill="#4157C5"></path>
                <path d="M1.5,5.7 C54.1,28.1 106.7,50.6 159.3,73 C166.9,76.2 174.4,79.4 182,82.7 C185.1,84 187.8,79.5 184.7,78.1 C132.1,55.7 79.5,33.2 26.9,10.8 C19.3,7.6 11.8,4.4 4.2,1.1 C1.1,-0.2 -1.6,4.4 1.5,5.7 Z" id="Shape" fill="#C6B142"></path>
            </g>
            <path d="M1640.9,284.3 L1651.4,316.7 C1652,318.5 1653.7,319.8 1655.6,319.8 L1689.7,319.8 C1694,319.8 1695.8,325.3 1692.3,327.9 L1664.7,347.9 C1663.1,349 1662.5,351 1663.1,352.9 L1673.6,385.3 C1674.9,389.4 1670.2,392.8 1666.7,390.3 L1639.1,370.3 C1637.5,369.2 1635.4,369.2 1633.9,370.3 L1606.3,390.3 C1602.8,392.8 1598.1,389.4 1599.4,385.3 L1609.9,352.9 C1610.5,351.1 1609.8,349.1 1608.3,347.9 L1580.7,327.9 C1577.2,325.4 1579,319.8 1583.3,319.8 L1617.4,319.8 C1619.3,319.8 1621,318.6 1621.6,316.7 L1632.1,284.3 C1633.8,280.2 1639.6,280.2 1640.9,284.3 Z" id="Shape" fill="#F1DF44"></path>
            <path d="M1768.3,284.3 L1778.8,316.7 C1779.4,318.5 1781.1,319.8 1783,319.8 L1817.1,319.8 C1821.4,319.8 1823.2,325.3 1819.7,327.9 L1792.1,347.9 C1790.5,349 1789.9,351 1790.5,352.9 L1801,385.3 C1802.3,389.4 1797.6,392.8 1794.1,390.3 L1766.5,370.3 C1764.9,369.2 1762.8,369.2 1761.3,370.3 L1733.7,390.3 C1730.2,392.8 1725.5,389.4 1726.8,385.3 L1737.3,352.9 C1737.9,351.1 1737.2,349.1 1735.7,347.9 L1708.1,327.9 C1704.6,325.4 1706.4,319.8 1710.7,319.8 L1744.8,319.8 C1746.7,319.8 1748.4,318.6 1749,316.7 L1759.5,284.3 C1761.2,280.2 1767,280.2 1768.3,284.3 Z" id="Shape" fill="#F1DF44"></path>
            <path d="M1895.8,284.3 L1906.3,316.7 C1906.9,318.5 1908.6,319.8 1910.5,319.8 L1944.6,319.8 C1948.9,319.8 1950.7,325.3 1947.2,327.9 L1919.6,347.9 C1918,349 1917.4,351 1918,352.9 L1928.5,385.3 C1929.8,389.4 1925.1,392.8 1921.6,390.3 L1894,370.3 C1892.4,369.2 1890.3,369.2 1888.8,370.3 L1861.2,390.3 C1857.7,392.8 1853,389.4 1854.3,385.3 L1864.8,352.9 C1865.4,351.1 1864.7,349.1 1863.2,347.9 L1835.6,327.9 C1832.1,325.4 1833.9,319.8 1838.2,319.8 L1872.3,319.8 C1874.2,319.8 1875.9,318.6 1876.5,316.7 L1887,284.3 C1888.6,280.2 1894.4,280.2 1895.8,284.3 Z" id="Shape" fill="#F1DF44"></path>
            <path d="M2023.2,284.3 L2033.7,316.7 C2034.3,318.5 2036,319.8 2037.9,319.8 L2072,319.8 C2076.3,319.8 2078.1,325.3 2074.6,327.9 L2047,347.9 C2045.4,349 2044.8,351 2045.4,352.9 L2055.9,385.3 C2057.2,389.4 2052.5,392.8 2049,390.3 L2021.4,370.3 C2019.8,369.2 2017.7,369.2 2016.2,370.3 L1988.6,390.3 C1985.1,392.8 1980.4,389.4 1981.7,385.3 L1992.2,352.9 C1992.8,351.1 1992.1,349.1 1990.6,347.9 L1963,327.9 C1959.5,325.4 1961.3,319.8 1965.6,319.8 L1999.7,319.8 C2001.6,319.8 2003.3,318.6 2003.9,316.7 L2014.4,284.3 C2016,280.2 2021.8,280.2 2023.2,284.3 Z" id="Shape" fill="#F1DF44"></path>
            <path d="M2150.6,284.3 L2161.1,316.7 C2161.7,318.5 2163.4,319.8 2165.3,319.8 L2199.4,319.8 C2203.7,319.8 2205.5,325.3 2202,327.9 L2174.4,347.9 C2172.8,349 2172.2,351 2172.8,352.9 L2183.3,385.3 C2184.6,389.4 2179.9,392.8 2176.4,390.3 L2148.8,370.3 C2147.2,369.2 2145.1,369.2 2143.6,370.3 L2116,390.3 C2112.5,392.8 2107.8,389.4 2109.1,385.3 L2119.6,352.9 C2120.2,351.1 2119.5,349.1 2118,347.9 L2090.4,327.9 C2086.9,325.4 2088.7,319.8 2093,319.8 L2127.1,319.8 C2129,319.8 2130.7,318.6 2131.3,316.7 L2141.8,284.3 C2143.5,280.2 2149.3,280.2 2150.6,284.3 Z" id="Shape" fill="#F1DF44"></path>
            <path d="M373.3,643.3 C315.8,596.4 258.2,549.6 200.7,502.7 C192.6,496.1 184.4,489.5 176.3,482.8 C173.7,480.7 169.9,484.4 172.5,486.6 C230,533.5 287.6,580.3 345.1,627.2 C353.2,633.8 361.4,640.4 369.5,647.1 C372.2,649.2 375.9,645.4 373.3,643.3 Z" id="Shape" fill="#29449F"></path>
            <path d="M363.8,684.8 C323.4,671.6 283,658.4 242.6,645.2 C177.9,624 113.1,602.9 48.4,581.7 C33.6,576.9 18.8,572 4,567.2 C0.7,566.1 -0.6,571.3 2.6,572.3 C43,585.5 83.4,598.7 123.8,611.9 C188.5,633.1 253.3,654.2 318,675.4 C332.8,680.2 347.6,685.1 362.4,689.9 C365.7,691 367.1,685.9 363.8,684.8 Z" id="Shape" fill="#29449F"></path>
            <path d="M349.5,718.7 C298.2,733.6 247,748.5 195.7,763.4 C188.4,765.5 181,767.7 173.7,769.8 C170.4,770.8 171.8,775.9 175.1,774.9 C226.4,760 277.6,745.1 328.9,730.2 C336.2,728.1 343.6,725.9 350.9,723.8 C354.1,722.9 352.8,717.7 349.5,718.7 Z" id="Shape" fill="#29449F"></path>
            <path d="M857.5,120.9 L857.5,213.4 C857.5,218 853.8,221.8 849.1,221.8 L805.7,221.8 C801.1,221.8 797.3,218.1 797.3,213.4 L797.3,120.9 C797.3,116.3 801,112.5 805.7,112.5 L849.1,112.5 C853.8,112.5 857.5,116.2 857.5,120.9 Z" id="Shape" fill="#28399F"></path>
            <path d="M1028.7,130.9 L1016.8,189.4 C1015.4,196.1 1009.5,200.9 1002.7,200.9 L857.6,200.9 L857.6,128.9 L922.5,113.6 L974.4,39.3 C990.5,39.3 1001.9,54.9 997,70.2 L983.2,113.6 L1014.6,113.6 C1023.6,113.7 1030.5,122 1028.7,130.9 Z" id="Shape" fill="#FFFFFF"></path>
            <circle id="Oval" fill="#29E467" cx="1359" cy="1449.8" r="82"></circle>
            <polygon id="Shape" fill="#8DDEFE" points="1536.3 1275.7 1505.1 1404.1 1437.9 1427.5 1283.3 1481.3 1201.4 1509.8 1231.9 1383.7"></polygon>
            <polygon id="Shape" fill="#8DDEFE" points="1492.9 1452.7 1485.9 1483.2 1417.8 1506.9 1348.4 1531.1 1182.3 1588.9 1188.6 1560.7 1311.9 1516.9 1437.9 1472.2"></polygon>
            <path d="M1348.4,1531.1 C1335,1529.3 1322.5,1524.4 1311.9,1516.9 L1437.8,1472.2 C1434,1485.5 1427,1497.3 1417.7,1506.9 L1348.4,1531.1 Z" id="Shape" fill="#1EBE57"></path>
            <path d="M1437.9,1427.5 L1283.3,1481.3 C1279.2,1471.6 1277,1460.9 1277,1449.8 C1277,1404.5 1313.7,1367.8 1359,1367.8 C1396.6,1367.8 1428.2,1393 1437.9,1427.5 Z" id="Shape" fill="#1EBE57"></path>
            <polygon id="Shape" fill="#FFFFFF" points="1340.9 1492.7 1307 1458.8 1319.5 1446.3 1340.9 1467.6 1395.4 1413.1 1407.9 1425.7"></polygon>
            <polyline id="Shape" fill="#1DBF57" points="559.7 1596.9 392.9 1422.8 218.8 1596.9"></polyline>
            <g id="Group" transform="translate(1708.000000, 500.000000)">
                <path d="M214,1 L1.6,412.2" id="Shape" fill="#4157C5"></path>
                <rect id="Rectangle-path" fill="#AD782C" transform="translate(107.791275, 206.636265) rotate(-62.684168) translate(-107.791275, -206.636265) " x="-123.561207" y="205.736255" width="462.704965" height="1.80001931"></rect>
            </g>
            <g id="Group" transform="translate(1727.000000, 500.000000)">
                <path d="M213.2,1 L0.8,412.2" id="Shape" fill="#4157C5"></path>
                <rect id="Rectangle-path" fill="#AD782C" transform="translate(107.049645, 206.567615) rotate(-62.684168) translate(-107.049645, -206.567615) " x="-124.302837" y="205.667605" width="462.704965" height="1.80001931"></rect>
            </g>
            <g id="Group" transform="translate(1745.000000, 500.000000)">
                <path d="M213.4,1 L1.1,412.2" id="Shape" fill="#4157C5"></path>
                <rect id="Rectangle-path" fill="#AD782C" transform="translate(107.262525, 206.588315) rotate(-62.684168) translate(-107.262525, -206.588315) " x="-124.089957" y="205.688305" width="462.704965" height="1.80001931"></rect>
            </g>
            <g id="Group" transform="translate(1763.000000, 500.000000)">
                <path d="M213.6,1 L1.3,412.2" id="Shape" fill="#4157C5"></path>
                <rect id="Rectangle-path" fill="#AD782C" transform="translate(107.475405, 206.609215) rotate(-62.684168) translate(-107.475405, -206.609215) " x="-123.877077" y="205.709205" width="462.704965" height="1.80001931"></rect>
            </g>
            <g id="Group" transform="translate(1781.000000, 500.000000)">
                <path d="M213.9,1 L1.5,412.2" id="Shape" fill="#4157C5"></path>
                <rect id="Rectangle-path" fill="#AD782C" transform="translate(107.688385, 206.629915) rotate(-62.684168) translate(-107.688385, -206.629915) " x="-123.664097" y="205.729905" width="462.704965" height="1.80001931"></rect>
            </g>
            <g id="Group" transform="translate(1799.000000, 500.000000)">
                <path d="M214.1,1 L1.7,412.2" id="Shape" fill="#4157C5"></path>
                <rect id="Rectangle-path" fill="#AD782C" transform="translate(107.901265, 206.650615) rotate(-62.684168) translate(-107.901265, -206.650615) " x="-123.451217" y="205.750605" width="462.704965" height="1.80001931"></rect>
            </g>
            <g id="Group" transform="translate(1818.000000, 500.000000)">
                <path d="M213.3,1 L1,412.2" id="Shape" fill="#4157C5"></path>
                <rect id="Rectangle-path" fill="#AD782C" transform="translate(107.159635, 206.582065) rotate(-62.684168) translate(-107.159635, -206.582065) " x="-124.192847" y="205.682055" width="462.704965" height="1.80001931"></rect>
            </g>
            <g id="Group" transform="translate(1836.000000, 500.000000)">
                <path d="M213.5,1 L1.2,412.2" id="Shape" fill="#4157C5"></path>
                <rect id="Rectangle-path" fill="#AD782C" transform="translate(107.372515, 206.602765) rotate(-62.684168) translate(-107.372515, -206.602765) " x="-123.979967" y="205.702755" width="462.704965" height="1.80001931"></rect>
            </g>
            <g id="Group" transform="translate(1854.000000, 500.000000)">
                <path d="M213.8,1 L1.4,412.2" id="Shape" fill="#4157C5"></path>
                <rect id="Rectangle-path" fill="#AD782C" transform="translate(107.585395, 206.623465) rotate(-62.684168) translate(-107.585395, -206.623465) " x="-123.767087" y="205.723455" width="462.704965" height="1.80001931"></rect>
            </g>
            <g id="Group" transform="translate(1872.000000, 500.000000)">
                <path d="M214,1 L1.6,412.2" id="Shape" fill="#4157C5"></path>
                <rect id="Rectangle-path" fill="#AD782C" transform="translate(107.798375, 206.644365) rotate(-62.684168) translate(-107.798375, -206.644365) " x="-123.554107" y="205.744355" width="462.704965" height="1.80001931"></rect>
            </g>
            <g id="Group" transform="translate(1891.000000, 500.000000)">
                <path d="M213.2,1 L0.8,412.2" id="Shape" fill="#4157C5"></path>
                <rect id="Rectangle-path" fill="#AD782C" transform="translate(107.056645, 206.575515) rotate(-62.684168) translate(-107.056645, -206.575515) " x="-124.295837" y="205.675505" width="462.704965" height="1.80001931"></rect>
            </g>
            <g id="Group" transform="translate(1909.000000, 500.000000)">
                <path d="M213.4,1 L1.1,412.2" id="Shape" fill="#4157C5"></path>
                <rect id="Rectangle-path" fill="#AD782C" transform="translate(107.269525, 206.596215) rotate(-62.684168) translate(-107.269525, -206.596215) " x="-124.082957" y="205.696205" width="462.704965" height="1.80001931"></rect>
            </g>
            <g id="Group" transform="translate(1927.000000, 500.000000)">
                <path d="M213.7,1 L1.3,412.2" id="Shape" fill="#4157C5"></path>
                <rect id="Rectangle-path" fill="#AD782C" transform="translate(107.482505, 206.617215) rotate(-62.684168) translate(-107.482505, -206.617215) " x="-123.869977" y="205.717205" width="462.704965" height="1.80001931"></rect>
            </g>
            <g id="Group" transform="translate(1945.000000, 500.000000)">
                <path d="M213.9,1 L1.5,412.2" id="Shape" fill="#4157C5"></path>
                <rect id="Rectangle-path" fill="#AD782C" transform="translate(107.695385, 206.637915) rotate(-62.684168) translate(-107.695385, -206.637915) " x="-123.657097" y="205.737905" width="462.704965" height="1.80001931"></rect>
            </g>
            <g id="Group" transform="translate(1963.000000, 500.000000)">
                <path d="M214.1,1 L1.7,412.2" id="Shape" fill="#4157C5"></path>
                <rect id="Rectangle-path" fill="#AD782C" transform="translate(107.953755, 206.569265) rotate(-62.684168) translate(-107.953755, -206.569265) " x="-123.398727" y="205.669255" width="462.704965" height="1.80001931"></rect>
            </g>
            <g id="Group" transform="translate(1982.000000, 500.000000)">
                <path d="M213.3,1 L1,412.2" id="Shape" fill="#4157C5"></path>
                <rect id="Rectangle-path" fill="#AD782C" transform="translate(107.166635, 206.589965) rotate(-62.684168) translate(-107.166635, -206.589965) " x="-124.185847" y="205.689955" width="462.704965" height="1.80001931"></rect>
            </g>
            <g id="Group" transform="translate(2000.000000, 500.000000)">
                <path d="M213.5,1 L1.2,412.2" id="Shape" fill="#4157C5"></path>
                <rect id="Rectangle-path" fill="#AD782C" transform="translate(107.379515, 206.610665) rotate(-62.684168) translate(-107.379515, -206.610665) " x="-123.972967" y="205.710655" width="462.704965" height="1.80001931"></rect>
            </g>
            <g id="Group" transform="translate(2018.000000, 500.000000)">
                <path d="M213.8,1 L1.4,412.2" id="Shape" fill="#4157C5"></path>
                <rect id="Rectangle-path" fill="#AD782C" transform="translate(107.592495, 206.631565) rotate(-62.684168) translate(-107.592495, -206.631565) " x="-123.759987" y="205.731555" width="462.704965" height="1.80001931"></rect>
            </g>
            <g id="Group" transform="translate(2036.000000, 500.000000)">
                <path d="M214,1 L1.6,412.2" id="Shape" fill="#4157C5"></path>
                <rect id="Rectangle-path" fill="#AD782C" transform="translate(107.804875, 206.651565) rotate(-62.684168) translate(-107.804875, -206.651565) " x="-123.547607" y="205.751555" width="462.704965" height="1.80001931"></rect>
            </g>
            <g id="Group" transform="translate(2055.000000, 500.000000)">
                <path d="M213.2,1 L0.9,412.2" id="Shape" fill="#4157C5"></path>
                <rect id="Rectangle-path" fill="#AD782C" transform="translate(107.063645, 206.583415) rotate(-62.684168) translate(-107.063645, -206.583415) " x="-124.288837" y="205.683405" width="462.704965" height="1.80001931"></rect>
            </g>
            <path d="M1804.8,1516.3 C1802,1490.9 1811.5,1449 1846.5,1457.4 C1855.2,1459.5 1862.3,1464.9 1866.5,1472.7 C1868.3,1476 1869.4,1479.7 1869.9,1483.4 C1870.2,1485.3 1870.3,1487.2 1870.2,1489.2 C1870,1492.9 1869.3,1501.2 1861.1,1495.7 C1854.8,1491.5 1857.5,1474.6 1858.6,1468.6 C1860.3,1459.2 1863.9,1450.4 1867.9,1441.8 C1874.3,1428 1883.1,1408.9 1899.4,1405 C1915.3,1401.2 1929.4,1415.8 1937.4,1427.7 C1946.3,1440.9 1951.5,1456.6 1951.6,1472.5 C1951.6,1479.8 1950.9,1487.5 1948.2,1494.4 C1946.8,1498 1944.2,1502.9 1940.1,1504 C1933.2,1505.9 1929.2,1499 1927.5,1493.7 C1921.9,1476.2 1930.2,1454.4 1940.6,1440.3 C1948.9,1429 1971.1,1407.5 1987,1414 C1990.2,1415.3 1991.5,1410.2 1988.4,1408.9 C1971,1401.8 1948,1422.5 1938.2,1434.7 C1925.4,1450.7 1915.2,1476.9 1923.1,1497.2 C1929.5,1513.7 1946.8,1512.1 1953,1496.3 C1960.9,1476.3 1956.5,1451.2 1946.7,1432.8 C1938.7,1417.6 1924.1,1399.8 1905.4,1399 C1882.1,1397.9 1869.4,1424.9 1861.5,1442.7 C1856.6,1453.6 1852.7,1465 1852.1,1477 C1851.7,1484.8 1851.8,1496.6 1859.6,1501.2 C1865.6,1504.7 1872.3,1502 1874.4,1495.5 C1877.1,1487.3 1874.8,1477.1 1870.8,1469.8 C1860.3,1450.5 1834,1445.1 1816.7,1458.6 C1799.8,1471.8 1797.1,1496.1 1799.3,1516 C1799.9,1519.7 1805.2,1519.7 1804.8,1516.3 Z" id="Shape" fill="#FFFFFF"></path>
        </g>
    </g>
</svg>
